<?xml version="1.0" encoding="utf-8"?>
<!-- Generator: Adobe Illustrator 24.3.0, SVG Export Plug-In . SVG Version: 6.00 Build 0)  -->
<svg version="1.1" id="Layer_1" xmlns="http://www.w3.org/2000/svg" xmlns:xlink="http://www.w3.org/1999/xlink" x="0px" y="0px"
	 viewBox="0 0 300 300" style="enable-background:new 0 0 300 300;" xml:space="preserve">
<style type="text/css">
	.st0{fill:#009CEA;}
</style>
<g>
	<path class="st0" d="M295.2,169.5c0-2.6-0.3-5.2-1-7.8c-3-11-13-18.7-24.4-18.7c-5.1-0.1-10.2,0-15.5,0c-1.8,0-3.6,0-5.5,0v-29
		c0-10.3-7-17.3-17.3-17.3H198c0-3.9,0-7.8,0-11.7c0-9.4,0-18.4,0-27.4v-0.5c-0.1-8.9-7.5-16.1-16.4-16c-8.9-0.1-18,0-26.8,0
		c-4.5,0-8.9,0-13.3,0c-6.4-0.2-12.2,3.3-15,8.9c-1.4,2.4-2.8,5.1-4.4,8.7l0,0.1c-0.3,0.8-0.3,0.8-1.7,0.8H53.2
		c-11.1,0-17.8,6.7-17.8,17.8v89.7c0,11.2,6.7,17.9,18,17.9h60.9v66.3c0,15.1,11,26.2,26.2,26.3h24.6v4.3h-18.3V296h115.7v-14.2
		h-18.1v-4.1h24.2c15.4-0.1,26.6-11.3,26.6-26.6C295.3,224,295.3,196.6,295.2,169.5z M179.5,281.7v-3.9h50.2v3.9H179.5z
		 M280.7,253.6c-0.6,5.7-5.4,9.7-11.8,9.7h-128c-7.8,0-12.5-4.7-12.5-12.5v-10.1l152.4-0.1c0,0.8,0,1.6,0.1,2.5
		C281,246.7,281,250.2,280.7,253.6z M49.6,77.9c0-3.7,0.3-4,4-4c6.6,0,13.2,0,19.8,0c16.2,0,32.9-0.1,49.4,0.1
		c4.4,0,8.9-0.9,11.2-7.2c0.7-2,1.7-4,2.9-6.1c0.7-1.2,1.3-2.5,2-3.8c0.5-1.1,1.5-1.7,2.6-1.6l39.3,0c2.4,0,3,0.6,3,3v19.6H49.6z
		 M234.6,203.9c0,3.6-0.3,3.9-3.9,3.9h-52.1c-3.6,0-3.9-0.3-3.9-3.9v-89.2c0-3.6,0.3-3.9,3.9-3.9h52.1c3.6,0,3.9,0.3,3.9,3.9V203.9z
		 M49.7,92.5h133.8v4h-6.2c-9.6,0.1-16.7,7.2-16.8,16.8v29.6c-1.8,0-3.6,0-5.4,0c-5.1,0-10.3-0.1-15.5,0c-10.7,0.3-18.7,5.5-23,15
		c-1.1,2.4-1.6,5.1-2,7.6c-0.1,0.7-0.2,1.4-0.4,2.1l0,0.3c-0.1,0.9-0.1,1.8-0.1,2.6c-0.1,0-0.2,0-0.3,0H53.6c-3.5,0-3.9-0.4-3.9-3.9
		V92.5z M128.5,213.1v-43.4c0-7.8,4.7-12.5,12.5-12.5l19.6,0v47.3c0,10.7,6.8,17.6,17.4,17.6h53.5c10.6,0,17.4-6.9,17.4-17.6v-47.3
		c1.3,0,2.6,0,3.9,0c4.3,0,8.4,0,12.4,0l0.1,0l0.1,0c2.5-0.1,5,0.1,7.4,0.5c4.5,1,7.8,5,8.1,9.7c0.1,15.2,0.1,30.7,0.1,45.8
		c0,4.3,0,8.6,0,12.8H128.4L128.5,213.1z"/>
	<path class="st0" d="M47.6,209.6c-24.8-24.9-35.9-65.2-27.7-101.1c10-44.2,37.7-73.3,82.4-86.6c55.1-11.5,97.3,6.8,129,55.9
		l1.3,1.9l11.6-6.3l-1.2-2.2c-16.3-30.5-44.8-53.3-78.2-62.6c-33.6-9.4-68.8-4.7-99,13.3C33.9,40.7,13.9,68.2,6.4,103.5
		c-9.4,43.5,1,82.7,30.9,116.4l-17.7,17.5l66.2,16.2l-16.1-66.3L47.6,209.6z M48.1,229.6l13.8-13.8c0.7,2.7,1.3,5.4,2,8.2
		c0.8,3.3,1.6,6.7,2.5,10.1L48.1,229.6z"/>
	<path class="st0" d="M234,85.2c1,2.4,1.9,4.5,3,7l0.9,2.2l13.3-4.8l-1.8-4.4c-0.8-2-1.6-3.9-2.4-5.9l-1-2.4l-13,5.9L234,85.2z"/>
	<rect x="179.2" y="119" class="st0" width="51" height="13.9"/>
	<rect x="179.1" y="140.9" class="st0" width="51.1" height="13.9"/>
	<rect x="179.2" y="163.5" class="st0" width="51" height="14"/>
	<rect x="179.1" y="185.8" class="st0" width="51" height="13.9"/>
	<circle class="st0" cx="251" cy="252" r="7.1"/>
	<circle class="st0" cx="269.5" cy="252" r="7.1"/>
	<path class="st0" d="M172.2,59.7h-22.3c-3.4,0-6.1,3.1-6.1,7s2.7,7,6.1,7h22.3c3.4,0,6.1-3.1,6.1-7S175.6,59.7,172.2,59.7z"/>
</g>
</svg>
