<?xml version="1.0" encoding="utf-8"?>
<!-- Generator: Adobe Illustrator 24.3.0, SVG Export Plug-In . SVG Version: 6.00 Build 0)  -->
<svg version="1.1" id="Layer_1" xmlns="http://www.w3.org/2000/svg" xmlns:xlink="http://www.w3.org/1999/xlink" x="0px" y="0px"
	 viewBox="0 0 300 300" style="enable-background:new 0 0 300 300;" xml:space="preserve">
<style type="text/css">
	.st0{fill:#009CEA;}
</style>
<g>
	<path class="st0" d="M130,238.9c5,0,8.1-2.6,8.1-6.8c0-1.6-0.6-6.8-8-6.8H97.4c-11.2,0-22.7,0-34,0.1c-4.1,0-7,2.6-7.2,6.4
		c-0.2,3.7,2.6,6.6,6.5,7.1L130,238.9z"/>
	<path class="st0" d="M73.1,152.5c1.1,0,2.1,0,3.2,0l0.2,0c1,0,2.1,0,3.1,0c1.1,0,2.2,0,3.2,0c4.2,0,6.9-2.5,7.1-6.4
		c0.1-2-0.6-3.8-1.8-5c-1.3-1.3-3.1-2.1-5.1-2.1c-6.5-0.1-13.2-0.1-19.7,0l-0.5,0c-1.8,0.1-3.5,0.9-4.7,2.2c-1.2,1.3-1.8,3.1-1.8,5
		c0.3,3.6,3.2,6.1,7.2,6.3L73.1,152.5z"/>
	<path class="st0" d="M264.3,97.9v-79c0-6.1-2-10.6-6.1-13.9L258,4.9c-2.2-1.4-4.3-2.5-6.3-3.4l-0.5-0.2h-142l-0.7,0.6
		c-1.6,1.4-4.8,4.3-2.9,8.6c1.9,4.6,6.4,4.4,8,4.3H246c4.2,0.1,4.7,0.6,4.7,4.7v72.9c-6.1-1.7-12.4-2.5-18.7-2.5
		c-20.2,0-39.5,8.7-52.9,24H65.3c-3.5,0-6,0.8-7.5,2.4c-1.2,1.2-1.7,2.8-1.6,4.6c0.2,6.6,7.1,6.6,9.3,6.6h104.3
		c-1.9,3.7-3.5,7.4-4.8,11.3h-60.1l-0.4,0c-1.4,0-3.3,0-4.7,1l-0.2,0.1c-0.8,0.7-3.4,3.4-3.2,6.3c0.2,2.4,2.2,3.9,3.8,5l0.4,0.3
		c0.7,0.6,1.5,0.8,2.5,0.8c0.4,0,0.8,0,1.3-0.1c0.2,0,0.4-0.1,0.6-0.1H162c-0.3,2.8-0.5,5.5-0.5,8.1c0,1.7,0.1,3.4,0.2,5.1
		c-1.3-1-3-1.7-5-1.7H65.3c-1,0-2,0-3,0.1c-3.6,0.3-6.2,3.3-6.1,6.8c0,4,3.2,6.7,7.9,6.7h92.5c2.7,0,5-1.2,6.3-3.1
		c1.8,9.3,5.5,18,11,25.9H65.2c-1-0.1-2-0.1-2.9,0c-3.4,0.2-6.1,3-6.2,6.3c-0.3,3.2,1.9,6.1,5.1,6.9c1.1,0.2,2.4,0.3,3.6,0.3H186
		c12.8,11,29.1,17.1,46,17.1c6.3,0,12.6-0.9,18.7-2.5V240h-31.2c-9.9,0-15.5,5.6-15.5,15.3v31.2H49.7c-3.7,0-4.3-0.6-4.3-4.5V19.4
		c0-3.8,0.6-4.4,4.3-4.4h40.4c2.1,0,6.3,0,8-4.4c1.7-4.4-1.6-7.3-3-8.6l-0.7-0.6H45l-0.4,0.1c-8.8,3-12.9,9.2-12.9,19.5l0,0.6
		c0.1,84.8,0.2,172.4,0.1,258.9c0,1.3,0,2.8,0.1,4.2c0.5,6.7,3.9,11.5,10.2,14.2l2.8,1.2h168.3l0.7-0.6c1.2-1,2.2-1.9,3.3-3
		c7.3-7.3,14.7-14.5,22-21.8c7.3-7.2,14.5-14.4,21.7-21.5c2.3-2.1,3.6-5.1,3.4-8.2v-22c23.6-12.2,38.2-36.1,38.2-62.6
		C302.5,134,287.9,110.1,264.3,97.9z M217.6,276.4v-21.9c0-0.5,0.1-0.8,0.1-0.9c0,0,0,0,0,0h0c6.3-0.1,12.7,0,18.9,0l3.3,0
		L217.6,276.4z M231.9,217.6c-31.4,0-57-25.6-57-57c0-31.5,25.6-57.1,57.1-57.1c31.4,0,57,25.6,57,57.1
		C289,192,263.4,217.6,231.9,217.6z"/>
	<path class="st0" d="M233.1,135.4c4.9,0,8.8-3.9,8.8-8.8c0-4.9-3.9-8.8-8.8-8.8c-2.5,0-4.7,1-6.2,2.6c-1.7,1.6-2.6,3.8-2.6,6.2
		C224.3,131.5,228.2,135.4,233.1,135.4z"/>
	<polygon class="st0" points="240.8,142.8 222,142.8 222,156.9 226,156.9 226,188.6 222,188.6 222,202.7 243.9,202.7 243.9,188.6 
		240.8,188.6 	"/>
</g>
<g>
	<g>
		<path class="st0" d="M100.6,24.9h10.1l12.8,39.8l8.6-39.8h13l-15.4,59.6h-11.9L106,42.9L93.5,84.5H81.6L66.2,24.9h13l8.6,39.8
			L100.6,24.9z"/>
		<path class="st0" d="M184.9,57.8v10.8h-32.8V57.8H184.9z"/>
		<path class="st0" d="M219.2,54.9l2.3,1.5c-0.8,1.3-1.9,2.2-3.5,2.8c-1.6,0.6-3.4,0.9-5.5,0.9c-3.4,0-6.3-0.7-8.9-2.2
			c-2.6-1.4-4.6-3.5-6-6.1c-1.4-2.6-2.1-5.7-2.1-9.2v0c0-3.9,0.8-7.2,2.3-9.9c1.5-2.7,3.8-4.8,6.7-6.2c2.9-1.4,6.5-2.1,10.6-2.1
			c4.1,0,7.6,0.7,10.6,2.2c2.9,1.4,5.2,3.6,6.7,6.3c1.5,2.8,2.3,6.1,2.3,10v0c0,2-0.3,4.1-1,6.5c-0.6,2.3-1.6,4.8-2.7,7.5
			c-0.2,0.4-0.3,0.8-0.5,1.1c-0.2,0.4-0.3,0.8-0.5,1.1l-12,25.6h-13.4L219.2,54.9z M220.2,47.7c1.2-1.3,1.8-3.1,1.8-5.4v0
			c0-2.2-0.6-4-1.8-5.2c-1.2-1.2-2.9-1.8-5.1-1.8c-2.2,0-4,0.6-5.2,1.8s-1.8,3-1.8,5.2v0c0,2.3,0.6,4.1,1.8,5.4
			c1.2,1.3,2.9,1.9,5.2,1.9C217.3,49.6,219,48.9,220.2,47.7z"/>
	</g>
</g>
</svg>
