<?xml version="1.0" encoding="utf-8"?>
<!-- Generator: Adobe Illustrator 24.3.0, SVG Export Plug-In . SVG Version: 6.00 Build 0)  -->
<svg version="1.1" id="Layer_1" xmlns="http://www.w3.org/2000/svg" xmlns:xlink="http://www.w3.org/1999/xlink" x="0px" y="0px"
	 viewBox="0 0 300 300" style="enable-background:new 0 0 300 300;" xml:space="preserve">
<style type="text/css">
	.st0{fill:#009CEA;}
</style>
<g>
	<path class="st0" d="M291.7,216c-2.6,0.3-4.7,2.2-5.2,4.7c-0.3,1.1-0.3,2.1-0.3,3v26.9h-20.4c-7.8,0-12.4,4.6-12.4,12.3v20.4H146.3
		c-0.8,0-1.2-0.1-1.4-0.1c-0.1-0.2-0.1-0.6-0.1-1.5v-61.3h0.4V95.5c0.2,0,0.6-0.1,1.1-0.1h28.5c1.6,0,5.5,0,7.1-3.9
		c1.7-4-1.2-6.7-2.4-7.8l-0.9-0.9h-33.4v-3.6h-0.1V32.1c0-5.5-2.4-7.9-7.9-7.9h-5c0-0.7,0-1.5,0-2.2c0-3,0-5.9,0-8.7
		c0.1-3.6-1.3-6.2-4.4-7.7l-0.5-0.2h-68l-0.6,0.3c-2.9,1.6-4.3,4.3-4.2,7.9c0.1,2.8,0.1,5.6,0,8.6c0,0.7,0,1.4,0,2.1h-4.6
		c-5.9,0-8.2,2.3-8.2,8.2v74.8H23.3c-5.9,0-8.2,2.3-8.2,8.2v91.8H6.7c-1.8-0.1-3.5,0.6-4.8,1.8c-1.3,1.2-2,2.8-2,4.7
		c0,3.6,3,6.6,6.8,6.6h125.4c0,6.4,0,12.8,0,19.1v44l0,0.1c0.2,5,3.4,9.5,8.1,11.4l2.2,1H262l0.7-0.7l0.8-0.7l0.1-0.1
		c0.2-0.2,0.4-0.4,0.7-0.6c0.3-0.3,0.6-0.5,0.8-0.8l9.6-9.6c3.4-3.4,6.9-6.9,10.5-10.4c3.6-3.5,7.1-7.1,10.6-10.5
		c2-1.8,3-4.3,2.9-6.9c0.1-7.8,0.1-15.7,0.1-23.4v-9c0-0.5,0-1.2-0.1-2C298.2,218,295,215.5,291.7,216z M276.6,263.4L266,274.2
		v-10.8H276.6z M103.1,189.5v17.6H83.6v-17.6H103.1z M118.8,18.7v5.4h-51v-5.4H118.8z M108.7,176H78.1c-5.2,0-7.8,2.6-7.8,7.8v23.3
		H55V37.6h76.7v169.5h-15.2v-23.2C116.5,178.6,113.9,176,108.7,176z M41.6,120.6v86.6H28.5v-86.6H41.6z"/>
	<path class="st0" d="M191.4,95.5h93.1c0.9,0,1.4,0.1,1.6,0.1c0.1,0.2,0.1,0.7,0.1,1.7v109.9c0,4.4,2.5,7.3,6.4,7.3
		c1.5,0,3-0.5,4.1-1.5l0.2-0.2c1.3-1.5,2.1-3.5,1.9-5.5V96.8c0-4.8-1.6-8.5-4.9-11c-1.1-0.8-2.2-1.4-3.5-2l-2-0.9H187.7l-0.8,0.8
		c-2.8,2.3-3.7,5-2.5,7.8C184.8,92.8,186.6,95.9,191.4,95.5z"/>
	<path class="st0" d="M281.8,198c0-3.6-2.8-6.2-6.8-6.4h-90.2c-1.4-0.1-2.9,0.2-4.1,1l-0.2,0.1c-0.7,0.5-3.2,3.1-2.9,6l0,0.1
		c0.4,2.1,2.1,3.6,3.8,4.7l0.3,0.2c0.4,0.2,1.2,0.6,2.1,0.6c0.1,0,0.3,0,0.4,0h90.7C278.9,204.2,281.8,201.6,281.8,198z"/>
	<path class="st0" d="M221.7,229.6c2-0.2,3.6-0.9,4.9-2.1c1.1-1.1,1.7-2.7,1.7-4.4c0-3.4-2.7-6-6.5-6.2l-64.9,0c-0.6,0-1.3,0-2,0.1
		c-3.2,0.4-5.6,3.2-5.5,6.3c0,1.5,0.5,2.9,1.5,4.1l0.2,0.2c1.4,1.3,3.3,1.9,5.3,1.9h65.2L221.7,229.6z"/>
	<path class="st0" d="M155.4,253l47.3,0c4.3,0,7.1-2.5,7.2-6.2c0.1-1.5-0.4-3.1-1.5-4.3l-0.2-0.2c-1.4-1.3-3.4-2-5.5-1.8H156
		c-3.4-0.1-6.3,2.4-6.6,5.8l0,0.3C149.3,250,152,252.8,155.4,253z"/>
	<path class="st0" d="M149.3,198.3c0.2,3.4,3,5.9,6.4,5.9c0.1,0,0.2,0,0.3,0l1.9-0.1h11.7c3.7,0,6.3-2.4,6.5-5.9
		c0.1-1.6-0.4-3.3-1.6-4.6l-0.1-0.1c-1.2-1.2-3-1.9-4.7-1.9c0,0,0,0,0,0c-4.6-0.1-9.4-0.1-14,0c-1.9,0-3.6,0.7-4.8,2.1
		C149.8,194.8,149.2,196.5,149.3,198.3z"/>
	<path class="st0" d="M83.9,130c-6.1-0.1-12.3-0.1-18.3,0c-4.2,0-6.9,2.7-6.9,7v18c0,4.2,2.8,7,6.9,7c3.1,0,6.1,0.1,9.2,0.1
		c3.1,0,6.1,0,9.1-0.1c4.3,0,6.9-2.6,6.9-7v-9c0-1,0-2,0-3c0-2,0-4.1,0-6.1C90.6,132.6,88.1,130,83.9,130z M77.4,143.3v5.4h-5.5
		v-5.4H77.4z"/>
	<path class="st0" d="M128.1,154.9V137c0-4.4-2.7-7.1-7-7.1c-6-0.1-12.1-0.1-18,0c-4.3,0-7,2.7-7,7.1v17.8c0,4.5,2.6,7.2,7,7.2
		c3,0,6,0.1,9,0.1c3,0,6,0,9-0.1C125.4,162,128.1,159.2,128.1,154.9z M114.7,143.2v5.5h-5.4v-5.5H114.7z"/>
	<path class="st0" d="M102.5,78.7c3.2,0,6.3,0.1,9.5,0.1c3.2,0,6.3,0,9.4-0.1c4.1,0,6.7-2.7,6.7-6.8l0-18.4c-0.2-4.3-2.8-6.9-7-6.9
		c-6-0.1-12.1-0.1-18,0c-4.4,0-7.1,2.7-7.1,7.1v9c0,1,0,2,0,3.1c0,2,0,4.1,0,6.2C96,75.9,98.7,78.7,102.5,78.7z M109.3,65.3v-5.4
		h5.4v5.4H109.3z"/>
	<path class="st0" d="M84.1,88.2H65.8c-4.3,0-7,2.7-7,7c-0.1,6-0.1,12.1,0,18c0,4.4,2.7,7.1,7.1,7.1h17.8c4.5,0,7.1-2.6,7.1-7.2
		v-8.8c0-3,0-6.1,0.1-9.3C90.9,90.9,88.2,88.2,84.1,88.2z M77.5,101.6v5.5H72v-5.5H77.5z"/>
	<path class="st0" d="M98.4,118.9c1.2,1,2.6,1.5,4.1,1.5c0.2,0,0.3,0,0.5,0h18.2c4.1,0,6.9-2.8,6.9-7v-18c0-4.3-2.8-7.1-7.1-7.1
		h-8.8c-1.1,0-2.1,0-3.2,0c-2.1,0-4.2,0-6.3,0l-0.7,0c-3.6,0.3-6.2,3.4-6,6.9v19.1l0,0.2C96.2,116.3,97,117.8,98.4,118.9z
		 M109.2,107v-5.4h5.5v5.4H109.2z"/>
	<path class="st0" d="M65.6,78.6c3.1,0.1,6.1,0.1,9.2,0.1c3.1,0,6.1,0,9.1-0.1c4.3,0,6.9-2.6,6.9-7v-9c0-1,0-2,0-3c0-2,0-4,0-6
		c-0.2-4.4-2.7-7-6.9-7c-6.1-0.1-12.3-0.1-18.3,0c-4.1,0-6.9,2.8-6.9,7v18C58.7,75.9,61.3,78.6,65.6,78.6z M72,65.4v-5.5h5.4v5.5H72
		z"/>
</g>
<g>
	<g>
		<path class="st0" d="M182.2,122.7h7l8.8,27.5l5.9-27.5h9l-10.7,41.2h-8.2l-8.2-28.8l-8.6,28.8h-8.2l-10.7-41.2h9l5.9,27.5
			L182.2,122.7z"/>
		<path class="st0" d="M240.3,145.4v7.5h-22.6v-7.5H240.3z"/>
		<path class="st0" d="M264,143.5l1.6,1c-0.5,0.9-1.3,1.5-2.4,1.9c-1.1,0.4-2.3,0.6-3.8,0.6c-2.3,0-4.4-0.5-6.2-1.5
			c-1.8-1-3.1-2.4-4.1-4.2c-1-1.8-1.5-3.9-1.5-6.3v0c0-2.7,0.5-4.9,1.6-6.8c1.1-1.9,2.6-3.3,4.6-4.3c2-1,4.5-1.5,7.3-1.5
			c2.8,0,5.3,0.5,7.3,1.5c2,1,3.6,2.5,4.6,4.4c1.1,1.9,1.6,4.2,1.6,6.9v0c0,1.4-0.2,2.9-0.7,4.5c-0.4,1.6-1.1,3.3-1.9,5.2
			c-0.1,0.3-0.2,0.5-0.3,0.8c-0.1,0.3-0.2,0.5-0.4,0.8l-8.3,17.6H254L264,143.5z M264.7,138.4c0.8-0.9,1.3-2.1,1.3-3.7v0
			c0-1.5-0.4-2.7-1.3-3.6c-0.8-0.8-2-1.3-3.5-1.3c-1.5,0-2.7,0.4-3.6,1.3s-1.3,2-1.3,3.6v0c0,1.6,0.4,2.8,1.3,3.7
			c0.8,0.9,2,1.3,3.6,1.3C262.7,139.7,263.9,139.3,264.7,138.4z"/>
	</g>
</g>
</svg>
