<?xml version="1.0" encoding="utf-8"?>
<!-- Generator: Adobe Illustrator 24.3.0, SVG Export Plug-In . SVG Version: 6.00 Build 0)  -->
<svg version="1.1" id="Layer_1" xmlns="http://www.w3.org/2000/svg" xmlns:xlink="http://www.w3.org/1999/xlink" x="0px" y="0px"
	 viewBox="0 0 300 300" style="enable-background:new 0 0 300 300;" xml:space="preserve">
<style type="text/css">
	.st0{fill:#009CEA;}
</style>
<g>
	<path class="st0" d="M256.2,189.2c-3-0.7-6.1,1.2-6.8,4.2c-0.3,1.2-0.3,2.4-0.3,3.5v41.3H217c-9.3,0-14.4,5.1-14.4,14.3v32H47.8
		c-4.3,0-5.3-1.1-5.3-5.4V17.4c0-4.3,1-5.4,5.3-5.4h40.3c2.1,0,5.5,0,7.1-3.7c1.6-3.8-1.2-6.2-2.7-7.4L92,0.5H43.3L43,0.6
		C34.8,3.3,30.9,9.2,30.9,19C31,105.2,31,192.8,31,277.6c0,1.3,0,2.8,0.1,4.1c0.4,6.1,3.8,10.7,9.6,13.3l2.6,1.1h167.2l0.4-0.4
		c0.3-0.3,0.6-0.6,1-0.8c0.7-0.6,1.5-1.3,2.2-2c14.3-14.3,29-28.9,43.6-43.3c2.1-1.9,3.2-4.7,3.1-7.4v-45.7c0-0.8,0-1.6-0.1-2.6
		C260.2,191.6,258.5,189.8,256.2,189.2z M214.3,251.7c0-1.9,0.6-1.9,1.1-1.9c3.2,0,6.3,0,9.5,0c3.2,0,6.3,0,9.4,0c1.9,0,3.8,0,5.6,0
		l-25.6,26.1V251.7z"/>
	<path class="st0" d="M260.7,16.9c0-5.8-1.9-10.1-5.8-13c-1.9-1.3-4-2.4-6.1-3.3l-0.3-0.1l-141-0.2l-0.4,0.4
		c-1.6,1.4-4.2,3.7-2.7,7.5c1.6,4,5.4,3.8,7.1,3.7h132.1c4.7,0,5.6,1,5.6,5.7v155.8c0,4.4,2.1,7.1,5.6,7.2c0.1,0,0.2,0,0.2,0
		c1.4,0,2.7-0.5,3.7-1.4c1.3-1.2,1.9-3.2,1.9-5.6V71.2c0-6,0-12.1,0-18.1C260.7,41.2,260.6,29,260.7,16.9z"/>
	<path class="st0" d="M232.3,210.2c2.7-0.7,4.5-3.1,4.2-5.8c0-2.9-2.3-5.3-5-5.4l-0.1,0c-1-0.1-1.9-0.2-3-0.1H63.4
		c-0.9,0-1.8,0-2.7,0.1c-2.9,0.1-5.2,2.6-5.2,5.4c-0.2,2.7,1.5,5.1,4.1,5.8c0.9,0.3,1.8,0.4,2.8,0.4c0.3,0,0.6,0,0.8,0h165.6
		C229.9,210.5,231.1,210.4,232.3,210.2z"/>
	<path class="st0" d="M55.3,119.5c0,4.3,2.8,6.5,8.3,6.5h164.9c5.3,0,8-2.2,8-6.5c0-4.5-2.8-6.8-8.2-6.8H63.5
		C56.7,112.7,55.3,116.4,55.3,119.5z"/>
	<path class="st0" d="M230,137.6H102.9c-0.2,0-0.5,0-0.7,0c-1.4,0-2.9-0.1-3.9,0.9c-0.3,0.3-3.3,3.1-2.9,5.6
		c0.3,1.8,2.1,3.2,3.6,4.4l0.3,0.2c0.5,0.4,1.2,0.5,1.8,0.5c0.3,0,0.7,0,1-0.1c0.3,0,0.6,0,0.8,0h62.9l4.6,0.1h59.4
		c3.9,0,6.6-2.3,6.6-5.7C236.5,140.1,233.9,137.7,230,137.6z"/>
	<path class="st0" d="M62.2,174h46c15.1,0,30.8,0,46.2-0.1c3.7,0,6.4-2.4,6.4-5.8c0-3.2-2.6-5.6-6.3-5.7H63.4c-0.9,0-2,0-2.9,0.1
		c-3,0.3-5.3,2.9-5.2,5.8C55.3,171.8,58,174,62.2,174z"/>
	<path class="st0" d="M61.4,223.6c-3.5,0-6,2.2-6.1,5.4c-0.1,3.1,2.2,5.6,5.5,6c0.5,0.1,1.1,0.1,1.7,0.1h65.4c4.4,0,7.1-2.2,7.1-5.8
		c0-1.7-0.7-5.8-7-5.8H61.4z"/>
	<path class="st0" d="M61.5,149.1h9.7c1.1,0,2.1,0,3.2,0c1.1,0,2.2,0,3.3,0c1.1,0,2.2,0,3.2,0c3.7,0,6-2,6.1-5.4
		c0.1-1.7-0.5-3.2-1.5-4.3c-1.1-1.1-2.6-1.7-4.4-1.7c-6.6-0.1-13.1-0.1-19.7,0l-0.5,0c-3.2,0.1-5.7,2.8-5.5,6.1
		C55.6,146.8,58,149,61.5,149.1z"/>
</g>
<g>
	<g>
		<path class="st0" d="M95.7,32.8h10.1l12.8,39.8l8.6-39.8h13l-15.4,59.6h-11.9L101,50.8L88.6,92.4H76.7L61.3,32.8h13l8.6,39.8
			L95.7,32.8z"/>
		<path class="st0" d="M179.9,65.7v10.8h-32.8V65.7H179.9z"/>
		<path class="st0" d="M214.2,62.8l2.3,1.5c-0.8,1.3-1.9,2.2-3.5,2.8c-1.6,0.6-3.4,0.9-5.5,0.9c-3.4,0-6.3-0.7-8.9-2.2
			c-2.6-1.4-4.6-3.5-6-6.1c-1.4-2.6-2.1-5.7-2.1-9.2v0c0-3.9,0.8-7.2,2.3-9.9c1.5-2.7,3.8-4.8,6.7-6.2c2.9-1.4,6.5-2.1,10.6-2.1
			c4.1,0,7.6,0.7,10.6,2.2c2.9,1.4,5.2,3.6,6.7,6.3c1.5,2.8,2.3,6.1,2.3,10v0c0,2-0.3,4.1-1,6.5c-0.6,2.3-1.6,4.8-2.7,7.5
			c-0.2,0.4-0.3,0.8-0.5,1.1c-0.2,0.4-0.3,0.8-0.5,1.1l-12,25.6h-13.4L214.2,62.8z M215.3,55.5c1.2-1.3,1.8-3.1,1.8-5.4v0
			c0-2.2-0.6-4-1.8-5.2c-1.2-1.2-2.9-1.8-5.1-1.8c-2.2,0-4,0.6-5.2,1.8s-1.8,3-1.8,5.2v0c0,2.3,0.6,4.1,1.8,5.4
			c1.2,1.3,2.9,1.9,5.2,1.9C212.4,57.5,214.1,56.8,215.3,55.5z"/>
	</g>
</g>
</svg>
